<?xml version="1.0" standalone="no"?>
<!DOCTYPE svg PUBLIC "-//W3C//DTD SVG 20010904//EN"
 "http://www.w3.org/TR/2001/REC-SVG-20010904/DTD/svg10.dtd">
<svg version="1.0" xmlns="http://www.w3.org/2000/svg"
 width="180.000000pt" height="180.000000pt" viewBox="0 0 180.000000 180.000000"
 preserveAspectRatio="xMidYMid meet">
<metadata>
Created by potrace 1.11, written by Peter Selinger 2001-2013
</metadata>
<g transform="translate(0.000000,180.000000) scale(0.100000,-0.100000)"
fill="#000000" stroke="none">
<path d="M750 1590 c-15 -8 -192 -46 -234 -49 -4 -1 -5 -13 -1 -28 13 -52 65
-317 65 -334 0 -14 -10 -15 -62 -12 -81 5 -153 21 -200 44 l-36 19 -129 -56
c-70 -31 -129 -57 -130 -58 -2 -2 21 -49 51 -107 49 -94 109 -245 120 -302 3
-12 11 -53 19 -92 9 -38 18 -97 22 -130 8 -82 10 -94 16 -100 5 -4 125 -21
339 -49 17 -2 39 8 68 32 23 19 44 33 46 31 2 -2 6 -18 9 -36 7 -41 14 -52 35
-51 18 1 52 -3 216 -27 55 -8 105 -15 113 -15 7 0 31 24 54 53 23 28 45 53 49
55 4 2 11 -21 15 -50 9 -67 17 -82 47 -84 27 -2 126 -12 222 -24 69 -9 96 -7
119 6 10 7 167 121 174 128 1 1 -7 30 -17 65 -20 63 -25 84 -39 173 -9 56 -7
178 3 231 8 36 7 37 -20 38 -16 0 -36 2 -44 3 -8 2 -44 6 -80 10 -36 3 -75 8
-87 10 -28 6 -110 18 -120 18 -5 0 -19 4 -31 9 -19 7 -32 3 -65 -21 -22 -16
-42 -29 -43 -27 -2 1 -6 36 -10 77 -15 142 -8 366 16 530 15 101 14 106 -17
107 -71 1 -381 14 -408 18 -16 2 -37 0 -45 -5z"/>
<path d="M62 183 c37 -2 100 -2 140 0 40 1 10 3 -67 3 -77 0 -110 -1 -73 -3z"/>
</g>
</svg>
